# Blender 3.1.0
# www.blender.org
o Back Wall
v -7.997255 -2.121917 -2.608331
v 8.547380 -2.121917 -2.608331
v -7.997255 5.065875 -2.608330
v 8.547380 5.065875 -2.608330
v -7.997255 -1.914811 -2.608331
v 8.547380 -1.914811 -2.608331
v -7.997255 -1.914811 -2.493895
v -7.997255 -2.121917 -2.493895
v 8.547380 -2.121917 -2.493895
v 8.547380 -1.914811 -2.493895
v -6.479117 -2.121917 -2.608331
v -6.479117 5.065875 -2.608330
v -6.479117 -1.914811 -2.608331
v -6.479117 -2.121917 -2.493895
v -6.479117 -1.914811 -2.493895
v -1.502983 -2.121917 -2.608331
v -1.502983 -2.121917 -2.493895
v -1.502983 5.065875 -2.608330
v -1.502983 -1.914811 -2.608331
v -1.502983 -1.914811 -2.493895
v 8.547380 4.634371 -2.608330
v -7.997255 4.634371 -2.608330
v -6.479117 4.634371 -2.608330
v -1.502983 4.634371 -2.608330
v -7.997255 0.923897 -2.608331
v 8.547380 0.923898 -2.608331
v -6.479117 0.923898 -2.608331
v -1.502983 0.923898 -2.608331
v -6.352524 1.050491 -2.842149
v -6.352524 4.507777 -2.842149
v -1.629576 1.050491 -2.842149
v -1.629576 4.507777 -2.842149
v -6.479117 0.923898 -2.842149
v -6.479117 4.634371 -2.842149
v -1.502983 0.923898 -2.842149
v -1.502983 4.634371 -2.842149
v -3.934103 5.065875 -2.608330
v -4.047996 5.065875 -2.608330
v -3.934103 -1.914811 -2.608331
v -4.047996 -1.914811 -2.608331
v -3.934103 -1.914811 -2.493895
v -4.047996 -1.914811 -2.493895
v -4.047996 -2.121917 -2.608331
v -3.934103 -2.121917 -2.608331
v -4.047996 -2.121917 -2.493895
v -3.934103 -2.121917 -2.493895
v -3.934103 4.634370 -2.608330
v -4.047996 4.634370 -2.608330
v -3.934103 0.923898 -2.608331
v -4.047996 0.923898 -2.608331
v -3.934103 4.634370 -2.842149
v -4.047996 4.634370 -2.842149
v -3.934103 0.923898 -2.842149
v -4.047996 0.923898 -2.842149
v -3.937001 4.507777 -2.842149
v -4.045099 4.507777 -2.842149
v -3.937001 1.050491 -2.842149
v -4.045099 1.050491 -2.842149
v -6.352524 1.050491 -2.998311
v -6.352524 4.507777 -2.998310
v -1.629576 1.050491 -2.998311
v -1.629576 4.507777 -2.998310
v -4.045099 4.507777 -2.998310
v -4.045099 1.050491 -2.998311
v -3.937001 4.507777 -2.998310
v -3.937001 1.050491 -2.998311
vn -0.0000 -0.0000 1.0000
vn 1.0000 -0.0000 -0.0000
vn -0.0000 -1.0000 -0.0000
vn -0.0000 1.0000 -0.0000
vn -1.0000 -0.0000 -0.0000
vt 0.485378 0.509737
vt 0.665636 0.000000
vt 0.485378 0.509737
vt 0.665636 1.000000
vt 0.000000 0.000000
vt 0.000000 1.000000
vt 0.672552 1.000000
vt 0.485378 0.522255
vt 0.421930 0.000000
vt 0.485378 0.522255
vt 0.672552 0.000000
vt 0.421930 1.000000
vt 0.665636 1.000000
vt 0.492294 0.522255
vt 0.646201 0.000000
vt 0.492294 0.509737
vt 0.658719 0.000000
vt 0.478461 0.509737
vt 0.658719 1.000000
vt 0.478461 0.522255
vt 0.646201 1.000000
vt 0.665636 0.000000
vt 0.665636 0.091760
vt 0.000000 0.091760
vt 0.672552 0.908240
vt 0.421930 0.091760
vt 0.658719 0.091760
vt 0.665636 0.908240
vt 0.646201 0.091760
vt 0.665636 0.392530
vt 0.658719 0.392530
vt 0.000000 0.392530
vt 0.421930 0.392530
vt 0.672552 0.607470
vt 0.646201 0.392530
vt 0.665636 0.607470
vt 0.026081 1.000000
vt 0.026081 0.000000
vt 0.436063 0.300770
vt 0.450196 0.525041
vt 0.026081 0.091760
vt 0.026081 0.392530
vt 0.478461 0.525041
vt 0.436063 0.601541
vt 0.250352 0.000000
vt 0.250351 1.000000
vt 0.450196 0.300770
vt 0.421931 0.601541
vt 0.250351 0.091760
vt 0.250351 0.392530
vt 0.421931 0.300770
vt 0.478461 0.300770
vt 0.478461 0.300770
vt 0.638549 0.007652
vt 0.525655 0.440237
vt 0.478461 0.509737
vt 0.429582 0.007652
vt 0.535094 0.300770
vt 0.638549 0.293118
vt 0.497338 0.300770
vt 0.544533 0.300770
vt 0.429582 0.293118
vt 0.497338 0.509737
vt 0.525655 0.300770
vt 0.464328 0.300770
vt 0.646201 0.000000
vt 0.436063 0.601541
vt 0.450196 0.300770
vt 0.464328 0.525041
vt 0.421930 0.000000
vt 0.436063 0.300770
vt 0.464328 0.300770
vt 0.646201 0.300770
vt 0.464328 0.525041
vt 0.421930 0.300770
vt 0.450196 0.601541
vt 0.000000 0.245587
vt 0.000000 0.238703
vt 0.421930 0.245587
vt 0.672552 0.754413
vt 0.421930 0.238703
vt 0.672552 0.761297
vt 0.646201 0.245587
vt 0.665636 0.754413
vt 0.646201 0.238703
vt 0.665636 0.761297
vt 0.665636 0.238703
vt 0.665636 0.245587
vt 0.658719 0.238703
vt 0.658719 0.245587
vt 0.436063 0.454597
vt 0.026081 0.245587
vt 0.436063 0.447713
vt 0.026081 0.238703
vt 0.421931 0.447713
vt 0.250351 0.245587
vt 0.421931 0.454597
vt 0.250351 0.238703
vt 0.421930 0.153827
vt 0.450196 0.454597
vt 0.421930 0.146943
vt 0.450196 0.447713
vt 0.646201 0.153827
vt 0.436063 0.447713
vt 0.646201 0.146943
vt 0.436063 0.454597
vt 0.429582 0.153652
vt 0.506777 0.509737
vt 0.525655 0.440237
vt 0.535094 0.440237
vt 0.429582 0.147118
vt 0.506777 0.509737
vt 0.638549 0.153652
vt 0.544533 0.440237
vt 0.506777 0.300770
vt 0.638549 0.147118
vt 0.506777 0.300770
vt 0.525655 0.300770
vt 0.487900 0.300770
vt 0.535094 0.440237
vt 0.487900 0.509737
vt 0.544533 0.300770
vt 0.487900 0.300770
vt 0.553972 0.300770
vt 0.487900 0.509737
vt 0.516216 0.300770
vt 0.544533 0.440237
vt 0.497338 0.509737
vt 0.497338 0.300770
vt 0.535094 0.300770
vt 0.516216 0.509737
vt 0.516216 0.440237
vt 0.553972 0.440237
vt 0.516216 0.300770
s 0
f 24/42/1 21/37/1 4/6/1 18/32/1
f 2/3/2 6/10/2 10/20/2 9/18/2
f 17/31/1 9/19/1 10/21/1 20/35/1
f 16/30/3 2/4/3 9/19/3 17/31/3
f 13/25/4 5/7/4 7/13/4 15/28/4
f 5/8/5 1/1/5 8/16/5 7/14/5
f 40/82/4 13/25/4 15/28/4 42/86/4
f 1/2/3 11/23/3 14/27/3 8/17/3
f 8/17/1 14/27/1 15/29/1 7/15/1
f 22/38/1 23/41/1 12/24/1 3/5/1
f 6/11/4 19/34/4 20/36/4 10/22/4
f 44/88/3 16/30/3 17/31/3 46/90/3
f 46/90/1 17/31/1 20/35/1 41/83/1
f 47/92/1 24/42/1 18/32/1 37/77/1
f 48/93/3 23/39/3 34/68/3 52/102/3
f 25/45/1 27/49/1 23/41/1 22/38/1
f 28/50/1 26/46/1 21/37/1 24/42/1
f 19/33/1 6/12/1 26/46/1 28/50/1
f 5/9/1 13/26/1 27/49/1 25/45/1
f 39/79/1 19/33/1 28/50/1 49/96/1
f 30/56/2 29/53/2 59/119/2 60/121/2
f 23/40/2 27/47/2 33/65/2 34/69/2
f 49/95/4 28/51/4 35/71/4 53/104/4
f 28/52/5 24/43/5 36/74/5 35/72/5
f 29/54/1 30/57/1 34/70/1 33/66/1
f 32/62/1 31/59/1 35/73/1 36/75/1
f 55/107/1 32/62/1 36/75/1 51/99/1
f 58/116/1 29/54/1 33/66/1 54/105/1
f 31/59/1 57/113/1 53/103/1 35/73/1
f 57/113/1 58/116/1 54/105/1 53/103/1
f 30/57/1 56/111/1 52/101/1 34/70/1
f 56/111/1 55/107/1 51/99/1 52/101/1
f 27/48/4 50/97/4 54/106/4 33/67/4
f 50/97/4 49/95/4 53/104/4 54/106/4
f 56/110/3 30/58/3 60/122/3 63/127/3
f 58/116/1 57/113/1 55/107/1 56/111/1
f 13/26/1 40/81/1 50/98/1 27/49/1
f 40/81/1 39/79/1 49/96/1 50/98/1
f 24/44/3 47/91/3 51/100/3 36/76/3
f 47/91/3 48/93/3 52/102/3 51/100/3
f 23/41/1 48/94/1 38/78/1 12/24/1
f 48/94/1 47/92/1 37/77/1 38/78/1
f 14/27/1 45/89/1 42/85/1 15/29/1
f 45/89/1 46/90/1 41/83/1 42/85/1
f 11/23/3 43/87/3 45/89/3 14/27/3
f 43/87/3 44/88/3 46/90/3 45/89/3
f 19/34/4 39/80/4 41/84/4 20/36/4
f 39/80/4 40/82/4 42/86/4 41/84/4
f 58/117/5 56/112/5 63/128/5 64/129/5
f 29/55/4 58/118/4 64/130/4 59/120/4
f 31/60/5 32/63/5 62/125/5 61/123/5
f 57/114/4 31/61/4 61/124/4 66/133/4
f 55/108/2 57/115/2 66/134/2 65/131/2
f 32/64/3 55/109/3 65/132/3 62/126/3
