# Blender 3.1.0
# www.blender.org
o Desk
v -3.159000 -0.403252 1.650171
v -3.159000 -0.260447 1.650171
v -3.159000 -0.403252 -1.587129
v -3.159000 -0.260447 -1.587129
v 2.916126 -0.403252 1.650171
v 2.916126 -0.260447 1.650171
v 2.916126 -0.260447 -1.587129
v -3.006486 -0.403252 -1.587129
v -3.006486 -0.260447 -1.587129
v -3.006486 -0.403252 1.650171
v -3.006486 -0.260447 1.650171
v 2.776322 -0.260447 -1.587129
v 2.776322 -0.403252 1.650171
v 2.776322 -0.260447 1.650171
v -3.159000 -0.260447 -1.458960
v 2.916126 -0.403252 -1.458960
v 2.916126 -0.260447 -1.458960
v -3.006486 -0.260447 -1.458960
v 2.776322 -0.260447 -1.458960
v -3.159000 -0.403252 -1.458960
v 2.916126 -0.403252 -1.587129
v 2.776322 -0.403252 -1.587129
v -3.006486 -0.403252 -1.458960
v 2.776322 -0.403252 -1.458960
v -3.159000 -2.116505 -1.458960
v -3.159000 -2.116505 1.650171
v -3.006486 -2.116505 -1.587129
v -3.159000 -2.116505 -1.587129
v 2.916126 -2.116505 -1.458960
v 2.916126 -2.116505 -1.587129
v 2.776322 -2.116505 1.650171
v 2.916126 -2.116505 1.650171
v 2.776322 -2.116505 -1.587129
v -3.006486 -2.116505 1.650171
v -3.006486 -2.116505 -1.458960
v 2.776322 -2.116505 -1.458960
v -1.779835 -0.403252 -1.587129
v -1.779835 -0.260447 1.650171
v -1.779835 -0.260447 -1.587129
v -1.779835 -0.403252 -1.458960
v -1.779835 -0.260447 -1.458960
v -1.779835 -2.116505 -1.587129
v -1.779835 -2.116505 -1.458960
v 1.629776 -0.260447 -1.587129
v 1.629776 -0.403252 1.650171
v 1.629776 -0.260447 -1.458960
v 1.629776 -0.260447 1.650171
v 1.629776 -0.403252 -1.458960
v 1.629776 -0.403252 -1.587129
v 1.629776 -2.116505 -1.587129
v 1.629776 -2.116505 -1.458960
v -3.006486 -1.328341 -1.458960
v 1.629776 -1.328341 1.650171
v 2.776322 -1.328341 1.650171
v 2.776322 -1.328341 -1.458960
v -1.779835 -1.328341 -1.458960
v -1.779835 -1.328341 1.650171
v 1.629776 -1.328341 -1.458960
v -1.779835 -0.668762 -1.458960
v -1.779835 -0.692155 -1.458960
v -1.779835 -0.978552 -1.458960
v -1.779835 -1.003445 -1.458960
v -3.006486 -1.003445 -1.458960
v -3.006486 -0.978552 -1.458960
v -3.006486 -0.692155 -1.458960
v -3.006486 -0.668762 -1.458960
v -1.779835 -0.668762 1.650171
v -1.779835 -0.978552 1.650171
v -1.779835 -1.003445 1.650171
v -3.006486 -1.003445 1.650171
v -3.006486 -0.692155 1.650171
v -1.818227 -0.668762 -1.531007
v -1.818227 -0.692155 -1.531007
v -1.818227 -0.978552 -1.531007
v -1.818227 -1.003445 -1.531007
v -1.818227 -0.668762 1.578124
v -1.818227 -0.692155 1.578124
v -1.818227 -0.978552 1.578124
v -1.818227 -1.003445 1.578124
v -3.044878 -1.003445 1.578124
v -3.044878 -0.978552 1.578124
v -3.044878 -0.692155 1.578124
v -3.044878 -0.668762 1.578124
v -1.779835 -0.403252 1.650171
v -3.006486 -1.328341 1.650171
v -3.006486 -0.668762 1.650171
v -1.779835 -0.692155 1.650171
v -3.006486 -0.978552 1.650171
vn -1.0000 -0.0000 -0.0000
vn -0.0000 -0.0000 -1.0000
vn 1.0000 -0.0000 -0.0000
vn -0.0000 -0.0000 1.0000
vn -0.0000 1.0000 -0.0000
vn -0.0000 -1.0000 -0.0000
vn 0.8825 -0.0000 -0.4703
vn -0.8825 -0.0000 0.4703
vt 0.802252 0.000000
vt 1.000000 0.257878
vt 0.385185 0.743126
vt 0.876143 0.390940
vt 0.790845 0.000000
vt 0.258577 0.485247
vt 0.988594 0.257878
vt 1.000000 0.000000
vt 0.988594 0.485247
vt 0.517155 0.485247
vt 0.385185 0.485247
vt 0.988594 0.000000
vt 0.977187 0.485247
vt 0.517155 0.485247
vt 0.996685 0.739342
vt 0.802252 0.485247
vt 0.106265 0.894433
vt 0.248340 0.485247
vt 0.985278 0.739342
vt 0.790845 0.485247
vt 0.258577 0.000000
vt 0.977187 0.000000
vt 0.517155 0.000000
vt 0.985278 0.997220
vt 0.517155 0.473065
vt 0.988594 0.473065
vt 0.517155 0.473065
vt 0.977187 0.473065
vt 0.802252 0.012182
vt 0.888324 0.390940
vt 0.522030 0.485247
vt 0.322231 0.990794
vt 0.073891 0.757588
vt 0.258577 0.473065
vt 0.790845 0.012182
vt 0.977187 0.011167
vt 0.517155 0.011167
vt 0.658875 0.732916
vt 0.095098 0.894433
vt 0.802252 0.474080
vt 0.896765 0.485247
vt 0.258577 0.011167
vt 0.790845 0.474080
vt 0.506917 0.485247
vt 0.988594 0.010210
vt 0.996685 0.987010
vt 0.248340 0.732916
vt 0.506917 0.000000
vt 0.985278 0.987010
vt 0.506917 0.473065
vt 0.506917 0.011167
vt 1.000000 0.010210
vt 0.385185 0.495457
vt 0.988594 0.000000
vt 0.996685 0.997220
vt 0.517155 0.000000
vt 0.248340 0.743126
vt 0.988594 0.011167
vt 0.517155 0.011167
vt 0.522030 0.732916
vt 0.654000 0.000000
vt 0.322231 0.743126
vt 0.396122 0.841104
vt 0.658875 0.485247
vt 0.654000 0.461898
vt 0.896765 0.732916
vt 0.000000 0.757588
vt 0.248340 0.000000
vt 0.522030 0.495457
vt 0.522030 0.743126
vt 0.000000 0.000000
vt 0.876143 0.254095
vt 0.258577 0.012182
vt 0.654000 0.473065
vt 0.654000 0.485247
vt 0.258577 0.000000
vt 0.522030 0.485247
vt 0.248340 0.485247
vt 0.385185 0.732916
vt 0.654000 0.000000
vt 0.258577 0.485247
vt 0.385185 0.743126
vt 0.795720 0.732916
vt 0.000000 0.474080
vt 0.095098 0.757588
vt 0.000000 0.485247
vt 0.106265 0.757588
vt 0.385185 0.485247
vt 0.654000 0.011167
vt 0.258577 0.474080
vt 0.000000 0.012182
vt 0.888324 0.254095
vt 0.658875 0.485247
vt 0.658875 0.732916
vt 0.790845 0.000000
vt 0.248340 0.012182
vt 0.795720 0.485247
vt 0.248340 0.474080
vt 0.790845 0.461898
vt 0.517155 0.375087
vt 0.988594 0.375087
vt 0.790845 0.110160
vt 0.258577 0.375087
vt 0.517155 0.375087
vt 0.977187 0.375087
vt 0.654000 0.097978
vt 0.248340 0.485247
vt 0.650593 0.980585
vt 0.396122 0.743126
vt 0.506917 0.375087
vt 0.258577 0.110160
vt 0.654000 0.375087
vt 0.790845 0.097978
vt 0.248340 0.110160
vt 0.517155 0.102746
vt 0.977187 0.102746
vt 0.248340 0.990794
vt 0.000000 0.757588
vt 0.802252 0.382501
vt 0.506917 0.102746
vt 0.258577 0.102746
vt 0.790845 0.382501
vt 0.248340 0.743126
vt 0.654000 0.370319
vt 0.248340 0.757588
vt 0.000000 0.849168
vt 0.517155 0.102746
vt 0.988594 0.102746
vt 0.258577 0.382501
vt 0.654000 0.102746
vt 0.790845 0.370319
vt 0.248340 0.382501
vt 0.470013 0.841104
vt 0.795721 0.739342
vt 0.396122 0.743126
vt 0.322231 0.990794
vt 0.893699 0.987682
vt 0.876143 0.382501
vt 0.985278 0.987682
vt 0.876143 0.474080
vt 0.970656 0.485247
vt 0.985278 0.739342
vt 0.970656 0.732916
vt 0.073891 0.757588
vt 0.470013 0.743126
vt 0.893699 0.739342
vt 0.649026 0.980585
vt 0.893699 0.987682
vt 0.649026 0.732916
vt 0.495964 0.841104
vt 0.322231 0.743126
vt 0.893699 0.739342
vt 0.073891 0.849168
vt 0.671800 0.980585
vt 0.417330 0.743126
vt 0.977187 0.005755
vt 0.654000 0.479792
vt 0.671800 0.980585
vt 0.419198 0.743126
vt 0.655869 0.479792
vt 0.623075 0.981256
vt 0.896765 0.491002
vt 0.694676 0.980585
vt 0.442074 0.743126
vt 0.654000 0.467863
vt 0.623075 0.980585
vt 0.444062 0.743126
vt 0.655988 0.467863
vt 0.795721 0.981256
vt 0.370171 0.743126
vt 0.444062 0.841104
vt 0.368183 0.743126
vt 0.442074 0.841104
vt 0.345307 0.743126
vt 0.419198 0.841104
vt 0.343439 0.743126
vt 0.417330 0.841104
vt 0.671800 0.732916
vt 0.977187 0.254095
vt 0.095098 0.855566
vt 0.694676 0.732916
vt 0.896765 0.739342
vt 0.495964 0.743126
vt 0.623075 0.732916
vt 0.795721 0.732916
vt 0.470013 0.841104
vt 0.370171 0.990794
vt 0.697742 0.732916
vt 0.655988 0.467863
vt 0.470013 0.743126
vt 0.345307 0.990794
vt 0.657737 0.473827
vt 0.525097 0.732916
vt 0.518840 0.841104
vt 0.972644 0.732916
vt 0.974121 0.000000
vt 0.654000 0.473827
vt 0.974513 0.732916
vt 0.655869 0.473827
vt 0.620008 0.987010
vt 0.893699 0.485247
vt 0.970656 0.732916
vt 0.654000 0.461898
vt 0.972644 0.732916
vt 0.655988 0.461898
vt 0.792654 0.987010
vt 0.108134 0.757588
vt 0.972644 0.485247
vt 0.974121 0.248340
vt 0.106265 0.757588
vt 0.974513 0.485247
vt 0.620008 0.738670
vt 0.520828 0.743126
vt 0.970656 0.485247
vt 0.893699 0.733587
vt 0.518840 0.743126
vt 0.972644 0.485247
vt 0.792654 0.738670
vt 0.694676 0.738670
vt 0.518840 0.841104
vt 0.655988 0.473827
vt 0.520828 0.841104
vt 0.654000 0.473827
vt 0.795721 0.733587
vt 0.657737 0.479792
vt 0.106265 0.855566
vt 0.522030 0.738670
vt 0.876143 0.248340
vt 0.655869 0.479792
vt 0.108134 0.855566
vt 0.802252 0.110160
vt 0.000000 0.485247
vt 0.650593 0.732916
vt 0.073891 0.855566
vt 0.795721 0.987682
vt 0.396122 0.990794
vt 0.495964 0.743126
vt 0.879209 0.254095
vt 0.343439 0.990794
vt 0.655869 0.473827
vt 0.095098 0.757588
vt 0.671800 0.732916
vt 0.623075 0.732916
vt 0.518840 0.743126
vt 0.368183 0.990794
vt 0.654000 0.467863
vt 0.798787 0.739342
vt 0.495964 0.841104
s 0
f 20/52/1 15/45/1 4/12/1 3/8/1
f 22/58/2 12/36/2 7/22/2 21/54/2
f 16/46/3 17/49/3 6/19/3 5/15/3
f 10/29/4 11/35/4 2/5/4 1/1/4
f 18/50/5 15/44/5 2/6/5 11/34/5
f 41/110/5 18/50/5 11/34/5 38/103/5
f 84/231/4 38/102/4 11/35/4 10/29/4
f 3/9/2 4/13/2 9/28/2 8/26/2
f 5/16/4 6/20/4 14/43/4 13/40/4
f 17/48/5 19/51/5 14/42/5 6/21/5
f 45/117/1 48/123/1 58/151/1 53/136/1
f 49/128/2 44/116/2 12/36/2 22/58/2
f 7/23/5 12/37/5 19/51/5 17/48/5
f 39/104/5 9/27/5 18/50/5 41/110/5
f 9/27/5 4/14/5 15/44/5 18/50/5
f 21/55/3 7/24/3 17/49/3 16/46/3
f 1/2/1 2/7/1 15/45/1 20/52/1
f 13/38/1 24/64/1 36/97/1 31/83/1
f 3/10/2 8/25/2 27/74/2 28/75/2
f 49/127/2 22/59/2 33/89/2 50/130/2
f 22/59/2 21/56/2 30/80/2 33/89/2
f 1/3/1 20/53/1 25/69/1 26/70/1
f 36/98/6 29/78/6 32/86/6 31/84/6
f 25/68/6 35/96/6 34/91/6 26/71/6
f 50/129/6 33/90/6 36/98/6 51/132/6
f 28/76/6 27/73/6 35/96/6 25/68/6
f 33/90/6 30/81/6 29/78/6 36/98/6
f 10/30/4 1/4/4 26/72/4 34/92/4
f 21/57/3 16/47/3 29/79/3 30/82/3
f 20/53/1 3/11/1 28/77/1 25/69/1
f 23/60/3 10/31/3 34/93/3 35/94/3
f 40/106/4 23/61/4 35/95/4 43/113/4
f 5/17/4 13/39/4 31/85/4 32/87/4
f 16/47/3 5/18/3 32/88/3 29/79/3
f 48/124/4 40/106/4 43/113/4 51/131/4
f 27/73/6 42/111/6 43/114/6 35/96/6
f 8/25/2 37/100/2 42/112/2 27/74/2
f 44/115/5 39/104/5 41/110/5 46/120/5
f 8/26/2 9/28/2 39/105/2 37/101/2
f 63/171/2 62/167/2 56/145/2 52/133/2
f 45/119/4 47/122/4 38/102/4 84/231/4
f 46/120/5 41/110/5 38/103/5 47/121/5
f 19/51/5 46/120/5 47/121/5 14/42/5
f 13/40/4 14/43/4 47/122/4 45/119/4
f 12/37/5 44/115/5 46/120/5 19/51/5
f 24/65/4 48/124/4 51/131/4 36/99/4
f 42/111/6 50/129/6 51/132/6 43/114/6
f 37/100/2 49/127/2 50/130/2 42/112/2
f 37/101/2 39/105/2 44/116/2 49/128/2
f 40/107/6 48/125/6 45/118/6 84/232/6
f 58/152/6 55/142/6 54/139/6 53/137/6
f 52/134/6 56/146/6 57/148/6 85/235/6
f 62/166/3 69/184/3 57/149/3 56/147/3
f 13/40/4 45/119/4 53/138/4 54/140/4
f 70/187/1 63/170/1 52/135/1 85/236/1
f 24/66/3 13/41/3 54/141/3 55/143/3
f 48/126/2 24/67/2 55/144/2 58/153/2
f 67/179/6 86/238/6 83/228/6 76/209/6
f 61/162/6 68/182/6 78/215/6 74/201/6
f 10/32/1 23/62/1 66/176/1 86/239/1
f 86/239/1 66/176/1 65/174/1 71/191/1
f 71/191/1 65/174/1 64/172/1 88/245/1
f 88/245/1 64/172/1 63/170/1 70/187/1
f 40/108/3 84/233/3 67/178/3 59/154/3
f 70/188/5 69/185/5 79/218/5 80/219/5
f 60/158/3 87/242/3 68/181/3 61/163/3
f 86/240/7 71/192/7 82/225/7 83/229/7
f 23/63/2 40/109/2 59/155/2 66/177/2
f 66/177/2 59/155/2 60/159/2 65/175/2
f 65/175/2 60/159/2 61/164/2 64/173/2
f 64/173/2 61/164/2 62/167/2 63/171/2
f 76/207/4 83/230/4 82/226/4 77/210/4
f 78/213/4 81/222/4 80/220/4 79/216/4
f 72/195/3 76/208/3 77/211/3 73/198/3
f 74/202/3 78/214/3 79/217/3 75/204/3
f 88/246/7 70/189/7 80/221/7 81/223/7
f 62/168/8 61/165/8 74/203/8 75/205/8
f 69/185/5 62/169/5 75/206/5 79/218/5
f 71/193/5 87/243/5 77/212/5 82/227/5
f 59/156/6 67/179/6 76/209/6 72/196/6
f 60/160/8 59/157/8 72/197/8 73/199/8
f 68/182/6 88/247/6 81/224/6 78/215/6
f 87/243/5 60/161/5 73/200/5 77/212/5
f 69/186/4 70/190/4 85/237/4 57/150/4
f 84/234/4 10/33/4 86/241/4 67/180/4
f 87/244/4 71/194/4 88/248/4 68/183/4
