# Blender 3.1.0
# www.blender.org
o Disk Light
v 0.000000 -0.013905 -0.048550
v 0.000000 -0.010643 -0.043667
v 0.000000 -0.005760 -0.040404
v 0.000000 0.000000 -0.039258
v 0.000000 0.005760 -0.040404
v 0.000000 0.010643 -0.043667
v 0.000000 0.013906 -0.048550
v 0.004073 -0.013905 -0.050237
v 0.007526 -0.010643 -0.046784
v 0.009833 -0.005760 -0.044477
v 0.010643 0.000000 -0.043667
v 0.009833 0.005760 -0.044477
v 0.007526 0.010643 -0.046784
v 0.004073 0.013906 -0.050237
v 0.005760 -0.013905 -0.054310
v 0.010643 -0.010643 -0.054310
v 0.013906 -0.005760 -0.054310
v 0.015051 0.000000 -0.054310
v 0.013906 0.005760 -0.054310
v 0.010643 0.010643 -0.054310
v 0.005760 0.013906 -0.054310
v -0.000000 -0.015051 -0.054310
v -0.005760 -0.013905 -0.054310
v -0.010643 -0.010643 -0.054310
v -0.013906 -0.005760 -0.054310
v -0.015051 0.000000 -0.054310
v -0.013906 0.005760 -0.054310
v -0.010643 0.010643 -0.054310
v -0.005760 0.013906 -0.054310
v 0.000000 0.015051 -0.054310
v -0.004073 -0.013905 -0.050237
v -0.007526 -0.010643 -0.046784
v -0.009833 -0.005760 -0.044477
v -0.010643 0.000000 -0.043667
v -0.009833 0.005760 -0.044477
v -0.007526 0.010643 -0.046784
v -0.004073 0.013906 -0.050237
vn -0.0000 0.9063 0.4226
vn -0.0000 0.6839 0.7296
vn 0.5159 0.6839 0.5159
vn 0.2988 0.9063 0.2988
vn -0.0000 0.3668 0.9303
vn -0.0000 -0.0000 1.0000
vn 0.7071 -0.0000 0.7071
vn 0.6578 0.3668 0.6578
vn -0.0000 -0.3668 0.9303
vn -0.0000 -0.6839 0.7296
vn 0.5159 -0.6839 0.5159
vn 0.6578 -0.3668 0.6578
vn -0.0000 -0.9063 0.4226
vn -0.0000 -0.9903 0.1393
vn 0.2988 -0.9063 0.2988
vn -0.0000 0.9903 0.1393
vn 0.4163 -0.8928 0.1724
vn 0.4163 0.8928 0.1724
vn 0.8681 0.3423 0.3596
vn 0.6984 0.6546 0.2893
vn 0.8681 -0.3423 0.3596
vn 0.9239 -0.0000 0.3827
vn 0.6984 -0.6546 0.2893
vn -0.9239 -0.0000 0.3827
vn -0.8681 -0.3423 0.3596
vn -0.6578 -0.3668 0.6578
vn -0.7071 -0.0000 0.7071
vn -0.6984 -0.6546 0.2893
vn -0.4163 -0.8928 0.1724
vn -0.2988 -0.9063 0.2988
vn -0.5159 -0.6839 0.5159
vn -0.4163 0.8928 0.1724
vn -0.6984 0.6546 0.2893
vn -0.5159 0.6839 0.5159
vn -0.2988 0.9063 0.2988
vn -0.8681 0.3423 0.3596
vn -0.6578 0.3668 0.6578
vt 0.750000 0.875000
vt 0.750000 0.750000
vt 0.750000 0.625000
vt 0.750000 0.500000
vt 0.750000 0.375000
vt 0.750000 0.250000
vt 0.750000 0.125000
vt 0.625000 0.875000
vt 0.625000 0.750000
vt 0.625000 0.625000
vt 0.625000 0.500000
vt 0.625000 0.375000
vt 0.625000 0.250000
vt 0.625000 0.125000
vt 0.500000 0.875000
vt 0.500000 0.750000
vt 0.500000 0.625000
vt 0.500000 0.500000
vt 0.500000 0.375000
vt 0.500000 0.250000
vt 0.500000 0.125000
vt 0.687500 1.000000
vt 0.562500 1.000000
vt 0.937500 1.000000
vt 0.812500 1.000000
vt 1.000000 0.875000
vt 1.000000 0.750000
vt 1.000000 0.625000
vt 1.000000 0.500000
vt 1.000000 0.375000
vt 1.000000 0.250000
vt 1.000000 0.125000
vt 0.687500 0.000000
vt 0.562500 0.000000
vt 0.937500 0.000000
vt 0.812500 0.000000
vt 0.875000 0.875000
vt 0.875000 0.750000
vt 0.875000 0.625000
vt 0.875000 0.500000
vt 0.875000 0.375000
vt 0.875000 0.250000
vt 0.875000 0.125000
s 1
f 7/7/1 6/6/2 13/13/3 14/14/4
f 5/5/5 4/4/6 11/11/7 12/12/8
f 3/3/9 2/2/10 9/9/11 10/10/12
f 1/1/13 22/22/14 8/8/15
f 30/33/16 7/7/1 14/14/4
f 6/6/2 5/5/5 12/12/8 13/13/3
f 4/4/6 3/3/9 10/10/12 11/11/7
f 2/2/10 1/1/13 8/8/15 9/9/11
f 8/8/15 22/23/14 15/15/17
f 30/34/16 14/14/4 21/21/18
f 13/13/3 12/12/8 19/19/19 20/20/20
f 11/11/7 10/10/12 17/17/21 18/18/22
f 9/9/11 8/8/15 15/15/17 16/16/23
f 14/14/4 13/13/3 20/20/20 21/21/18
f 12/12/8 11/11/7 18/18/22 19/19/19
f 10/10/12 9/9/11 16/16/23 17/17/21
f 26/29/24 25/28/25 33/39/26 34/40/27
f 24/27/28 23/26/29 31/37/30 32/38/31
f 29/32/32 28/31/33 36/42/34 37/43/35
f 27/30/36 26/29/24 34/40/27 35/41/37
f 25/28/25 24/27/28 32/38/31 33/39/26
f 23/26/29 22/24/14 31/37/30
f 30/35/16 29/32/32 37/43/35
f 28/31/33 27/30/36 35/41/37 36/42/34
f 37/43/35 36/42/34 6/6/2 7/7/1
f 35/41/37 34/40/27 4/4/6 5/5/5
f 33/39/26 32/38/31 2/2/10 3/3/9
f 31/37/30 22/25/14 1/1/13
f 30/36/16 37/43/35 7/7/1
f 36/42/34 35/41/37 5/5/5 6/6/2
f 34/40/27 33/39/26 3/3/9 4/4/6
f 32/38/31 31/37/30 1/1/13 2/2/10
