# Blender 3.1.0
# www.blender.org
o Screen
v 0.418156 1.119240 0.510563
v 0.418156 0.363116 0.580791
v -0.585449 0.363116 0.580791
v -0.585449 1.119265 0.510091
v 0.274784 1.119244 0.510496
v 0.131412 1.119247 0.510428
v -0.011960 1.119251 0.510361
v -0.155333 1.119254 0.510293
v -0.298705 1.119258 0.510226
v -0.442077 1.119262 0.510158
v -0.442076 0.363116 0.580791
v -0.298704 0.363116 0.580791
v -0.155332 0.363116 0.580791
v -0.011960 0.363116 0.580791
v 0.131412 0.363116 0.580791
v 0.274784 0.363116 0.580791
v -0.585449 0.514346 0.566651
v -0.585449 0.665576 0.552511
v -0.585449 0.816805 0.538371
v -0.585449 0.968035 0.524231
v 0.418156 0.968015 0.524609
v 0.418156 0.816790 0.538654
v 0.418156 0.665566 0.552700
v 0.418156 0.514341 0.566745
v 0.274784 0.968018 0.587450
v 0.274784 0.816793 0.622889
v 0.274784 0.665567 0.636948
v 0.274784 0.514342 0.629625
v 0.131412 0.968021 0.606202
v 0.131412 0.816795 0.647358
v 0.131412 0.665568 0.661430
v 0.131412 0.514342 0.648419
v -0.011960 0.968024 0.606147
v -0.011960 0.816797 0.647317
v -0.011960 0.665570 0.661403
v -0.011960 0.514343 0.648405
v -0.155332 0.968027 0.606092
v -0.155332 0.816799 0.647277
v -0.155332 0.665571 0.661376
v -0.155332 0.514344 0.648391
v -0.298705 0.968030 0.606038
v -0.298705 0.816801 0.647236
v -0.298704 0.665573 0.661349
v -0.298704 0.514344 0.648377
v -0.442077 0.968032 0.587175
v -0.442077 0.816803 0.622687
v -0.442077 0.665574 0.636813
v -0.442077 0.514345 0.629557
v -0.513763 1.119263 0.510125
v -0.585449 1.043650 0.517161
v 0.346470 0.363116 0.580791
v 0.418156 0.438728 0.573768
v 0.346470 1.119242 0.510529
v 0.203098 1.119245 0.510462
v 0.059726 1.119249 0.510394
v -0.083646 1.119253 0.510327
v -0.227019 1.119256 0.510260
v -0.370391 1.119260 0.510192
v -0.513762 0.363116 0.580791
v -0.370390 0.363116 0.580791
v -0.227018 0.363116 0.580791
v -0.083646 0.363116 0.580791
v 0.059726 0.363116 0.580791
v 0.203098 0.363116 0.580791
v 0.274784 0.438729 0.615687
v 0.131412 0.438729 0.630047
v -0.011960 0.438729 0.630040
v -0.155332 0.438730 0.630032
v -0.298704 0.438730 0.630024
v -0.442076 0.438731 0.615651
v -0.585449 0.438731 0.573721
v -0.585449 0.589961 0.559581
v -0.585449 0.741190 0.545441
v -0.585449 0.892420 0.531301
v 0.418156 1.043628 0.517586
v 0.418156 0.892403 0.531632
v 0.418156 0.741178 0.545677
v 0.418156 0.589953 0.559723
v 0.274784 1.043631 0.559453
v 0.274784 0.892405 0.610049
v 0.274784 0.741180 0.629918
v 0.274784 0.589954 0.638165
v 0.131412 1.043634 0.573757
v 0.131412 0.892408 0.632612
v 0.131412 0.741182 0.654394
v 0.131412 0.589955 0.660757
v -0.011960 1.043637 0.573695
v -0.011960 0.892410 0.632565
v -0.011960 0.741183 0.654360
v -0.011960 0.589956 0.660737
v -0.155333 1.043640 0.573634
v -0.155332 0.892413 0.632517
v -0.155332 0.741185 0.654327
v -0.155332 0.589957 0.660716
v -0.298705 1.043644 0.573572
v -0.298705 0.892415 0.632470
v -0.298705 0.741187 0.654293
v -0.298704 0.589959 0.660696
v -0.442077 1.043647 0.559142
v -0.442077 0.892418 0.609810
v -0.442077 0.741189 0.629750
v -0.442077 0.589960 0.638065
v -0.370390 0.514345 0.643308
v -0.370391 0.665573 0.654419
v -0.370391 0.816802 0.640299
v -0.370391 0.968031 0.600947
v -0.227018 0.514344 0.648384
v -0.227018 0.665572 0.661363
v -0.227018 0.816800 0.647257
v -0.227019 0.968028 0.606065
v -0.083646 0.514343 0.648398
v -0.083646 0.665571 0.661390
v -0.083646 0.816798 0.647297
v -0.083646 0.968025 0.606120
v 0.059726 0.514343 0.648412
v 0.059726 0.665569 0.661417
v 0.059726 0.816796 0.647337
v 0.059726 0.968022 0.606174
v 0.203098 0.514342 0.643363
v 0.203098 0.665568 0.654527
v 0.203098 0.816794 0.640461
v 0.203098 0.968020 0.601167
v 0.346470 0.514341 0.610685
v 0.346470 0.665566 0.613430
v 0.346470 0.816792 0.599378
v 0.346470 0.968017 0.568531
v -0.513763 0.514345 0.610604
v -0.513763 0.665575 0.613268
v -0.513763 0.816804 0.599135
v -0.513763 0.968034 0.568201
v -0.513763 0.892419 0.587527
v -0.513763 0.741190 0.606202
v -0.513763 0.589960 0.615796
v -0.513763 0.438731 0.601218
v 0.346470 0.892404 0.587813
v 0.346470 0.741179 0.606404
v 0.346470 0.589954 0.615916
v 0.346470 0.438729 0.601259
v 0.203098 0.892407 0.626432
v 0.203098 0.741181 0.647494
v 0.203098 0.589955 0.654563
v 0.203098 0.438729 0.626199
v 0.059726 0.892409 0.632588
v 0.059726 0.741183 0.654377
v 0.059726 0.589956 0.660747
v 0.059726 0.438729 0.630044
v -0.083646 0.892412 0.632541
v -0.083646 0.741184 0.654343
v -0.083646 0.589957 0.660727
v -0.083646 0.438730 0.630036
v -0.227019 0.892414 0.632493
v -0.227018 0.741186 0.654310
v -0.227018 0.589958 0.660706
v -0.227018 0.438730 0.630028
v -0.370391 0.892417 0.626242
v -0.370391 0.741188 0.647359
v -0.370390 0.589959 0.654482
v -0.370390 0.438730 0.626170
v -0.370391 1.043645 0.569689
v -0.227019 1.043642 0.573603
v -0.083646 1.043639 0.573665
v 0.059726 1.043636 0.573726
v 0.203098 1.043633 0.569938
v 0.346470 1.043629 0.545054
v -0.513763 1.043648 0.544681
vn -0.2380 0.3151 0.9187
vn -0.1363 0.3743 0.9173
vn -0.1822 0.2609 0.9480
vn -0.3109 0.2226 0.9240
vn 0.2373 0.3147 0.9190
vn 0.1355 0.3740 0.9175
vn 0.0734 0.5325 0.8432
vn 0.1309 0.4386 0.8891
vn 0.0744 0.4937 0.8665
vn 0.0398 0.6064 0.7942
vn 0.0101 0.6362 0.7714
vn 0.0195 0.5180 0.8552
vn -0.0004 0.5238 0.8518
vn -0.0003 0.6421 0.7666
vn -0.0004 0.5239 0.8518
vn -0.0003 0.6422 0.7666
vn -0.0108 0.6363 0.7714
vn -0.0202 0.5181 0.8551
vn -0.0751 0.4939 0.8663
vn -0.0405 0.6065 0.7941
vn -0.0741 0.5327 0.8431
vn -0.1316 0.4389 0.8888
vn -0.0793 -0.3598 0.9296
vn -0.1268 -0.1767 0.9761
vn -0.2172 -0.1402 0.9660
vn -0.1384 -0.2928 0.9461
vn -0.1513 -0.0689 0.9861
vn -0.1641 0.0469 0.9853
vn -0.2710 0.0528 0.9611
vn -0.2540 -0.0455 0.9661
vn -0.1671 0.0917 0.9817
vn -0.1630 0.1353 0.9773
vn -0.2694 0.1257 0.9548
vn -0.2744 0.0894 0.9574
vn -0.1477 0.2446 0.9583
vn -0.1217 0.3422 0.9317
vn -0.2094 0.3078 0.9281
vn -0.2486 0.2199 0.9433
vn -0.0000 -0.3965 0.9180
vn -0.0001 -0.1985 0.9801
vn -0.0346 -0.1946 0.9803
vn -0.0212 -0.3895 0.9208
vn -0.0001 -0.0850 0.9964
vn -0.0002 0.0421 0.9991
vn -0.0469 0.0433 0.9980
vn -0.0424 -0.0817 0.9958
vn -0.0002 0.0929 0.9957
vn -0.0003 0.1424 0.9898
vn -0.0466 0.1410 0.9889
vn -0.0481 0.0928 0.9945
vn -0.0003 0.2615 0.9652
vn -0.0003 0.3624 0.9320
vn -0.0333 0.3589 0.9328
vn -0.0414 0.2581 0.9652
vn -0.0001 -0.1986 0.9801
vn -0.0001 -0.0851 0.9964
vn -0.0002 0.0928 0.9957
vn -0.0003 0.1423 0.9898
vn -0.0003 0.2614 0.9652
vn -0.0000 -0.3966 0.9180
vn -0.0001 -0.1987 0.9801
vn -0.0001 -0.0852 0.9964
vn -0.0002 0.0420 0.9991
vn -0.0002 0.0927 0.9957
vn -0.0003 0.2613 0.9653
vn -0.0003 0.3623 0.9321
vn -0.0003 0.2613 0.9652
vn 0.0793 -0.3601 0.9295
vn 0.1266 -0.1770 0.9760
vn 0.0344 -0.1948 0.9802
vn 0.0211 -0.3897 0.9207
vn 0.1510 -0.0693 0.9861
vn 0.1638 0.0466 0.9854
vn 0.0465 0.0430 0.9980
vn 0.0421 -0.0820 0.9957
vn 0.1667 0.0913 0.9818
vn 0.1625 0.1349 0.9774
vn 0.0461 0.1407 0.9890
vn 0.0476 0.0926 0.9946
vn 0.1471 0.2443 0.9585
vn 0.1211 0.3419 0.9319
vn 0.0326 0.3587 0.9329
vn 0.0407 0.2579 0.9653
vn 0.2431 -0.1522 0.9580
vn 0.3846 -0.0614 0.9211
vn 0.2170 -0.1407 0.9660
vn 0.1383 -0.2932 0.9460
vn 0.4513 -0.0019 0.8924
vn 0.4798 0.0588 0.8754
vn 0.2707 0.0524 0.9612
vn 0.2538 -0.0459 0.9662
vn 0.4866 0.0808 0.8699
vn 0.4786 0.1035 0.8719
vn 0.2689 0.1253 0.9550
vn 0.2740 0.0890 0.9576
vn 0.4473 0.1649 0.8790
vn 0.3785 0.2260 0.8976
vn 0.2087 0.3075 0.9284
vn 0.2480 0.2195 0.9436
vn -0.2432 -0.1517 0.9580
vn -0.3847 -0.0609 0.9210
vn -0.5127 -0.0014 0.8585
vn -0.3228 -0.0498 0.9452
vn -0.4514 -0.0014 0.8923
vn -0.4801 0.0592 0.8752
vn -0.6385 0.0606 0.7672
vn -0.6037 0.0304 0.7967
vn -0.4869 0.0813 0.8697
vn -0.4790 0.1040 0.8716
vn -0.6369 0.0837 0.7664
vn -0.6449 0.0711 0.7609
vn -0.4477 0.1653 0.8787
vn -0.3790 0.2265 0.8973
vn -0.5025 0.1609 0.8495
vn -0.5976 0.1194 0.7928
vn -0.1422 -0.2162 0.9659
vn -0.1876 -0.0864 0.9784
vn -0.0796 -0.4058 0.9105
vn 0.6367 0.0832 0.7666
vn 0.5974 0.1190 0.7931
vn 0.5021 0.1604 0.8498
vn 0.6383 0.0601 0.7674
vn 0.6448 0.0707 0.7611
vn 0.5126 -0.0019 0.8586
vn 0.6035 0.0299 0.7968
vn 0.1422 -0.2167 0.9658
vn 0.0795 -0.4061 0.9103
vn 0.1876 -0.0870 0.9784
vn 0.3227 -0.0503 0.9452
vn 0.0437 -0.4997 0.8651
vn 0.0114 -0.5382 0.8427
vn -0.0000 -0.5458 0.8379
vn -0.0000 -0.5457 0.8380
vn -0.0114 -0.5380 0.8429
vn -0.0438 -0.4994 0.8653
vn 0.3104 0.2221 0.9243
vn 0.1815 0.2605 0.9483
vt 0.987318 0.965685
vt 0.984726 0.039630
vt 0.021196 0.039630
vt 0.018596 0.965685
vt 0.839238 0.965685
vt 0.703902 0.965685
vt 0.569949 0.965685
vt 0.435996 0.965685
vt 0.302043 0.965685
vt 0.166699 0.965685
vt 0.168503 0.039630
vt 0.303121 0.039630
vt 0.436356 0.039630
vt 0.569591 0.039630
vt 0.702826 0.039630
vt 0.837438 0.039630
vt 0.020664 0.229126
vt 0.020167 0.406114
vt 0.019671 0.582982
vt 0.019161 0.764435
vt 0.986755 0.764435
vt 0.986247 0.582982
vt 0.985752 0.406114
vt 0.985256 0.229126
vt 0.838847 0.764435
vt 0.838494 0.582982
vt 0.838150 0.406114
vt 0.837806 0.229126
vt 0.703668 0.764435
vt 0.703457 0.582982
vt 0.703252 0.406114
vt 0.703046 0.229126
vt 0.569871 0.764435
vt 0.569801 0.582982
vt 0.569733 0.406114
vt 0.569664 0.229126
vt 0.436074 0.764435
vt 0.436145 0.582982
vt 0.436214 0.406114
vt 0.436282 0.229126
vt 0.302277 0.764435
vt 0.302488 0.582982
vt 0.302694 0.406114
vt 0.302901 0.229126
vt 0.167091 0.764435
vt 0.167444 0.582982
vt 0.167789 0.406114
vt 0.168134 0.229126
vt 0.097523 0.965685
vt 0.018897 0.858459
vt 0.906235 0.039630
vt 0.985005 0.139243
vt 0.908405 0.965685
vt 0.771056 0.965685
vt 0.636926 0.965685
vt 0.502973 0.965685
vt 0.369020 0.965685
vt 0.234887 0.965685
vt 0.099699 0.039630
vt 0.236326 0.039630
vt 0.369739 0.039630
vt 0.502973 0.039630
vt 0.636208 0.039630
vt 0.769620 0.039630
vt 0.837631 0.139243
vt 0.702941 0.139243
vt 0.569629 0.139243
vt 0.436317 0.139243
vt 0.303005 0.139243
vt 0.168309 0.139243
vt 0.020916 0.139243
vt 0.020414 0.318002
vt 0.019919 0.494548
vt 0.019420 0.672366
vt 0.987018 0.858459
vt 0.986497 0.672366
vt 0.985999 0.494548
vt 0.985505 0.318002
vt 0.839029 0.858459
vt 0.838668 0.672366
vt 0.838322 0.494548
vt 0.837979 0.318002
vt 0.703777 0.858459
vt 0.703561 0.672366
vt 0.703354 0.494548
vt 0.703149 0.318002
vt 0.569908 0.858459
vt 0.569836 0.672366
vt 0.569767 0.494548
vt 0.569698 0.318002
vt 0.436038 0.858459
vt 0.436110 0.672366
vt 0.436179 0.494548
vt 0.436248 0.318002
vt 0.302168 0.858459
vt 0.302384 0.672366
vt 0.302591 0.494548
vt 0.302797 0.318002
vt 0.166907 0.858459
vt 0.167270 0.672366
vt 0.167617 0.494548
vt 0.167961 0.318002
vt 0.236031 0.229126
vt 0.235756 0.406114
vt 0.235481 0.582982
vt 0.235200 0.764435
vt 0.369591 0.229126
vt 0.369454 0.406114
vt 0.369317 0.582982
vt 0.369176 0.764435
vt 0.502973 0.229126
vt 0.502973 0.406114
vt 0.502973 0.582982
vt 0.502973 0.764435
vt 0.636355 0.229126
vt 0.636492 0.406114
vt 0.636629 0.582982
vt 0.636770 0.764435
vt 0.769913 0.229126
vt 0.770188 0.406114
vt 0.770462 0.582982
vt 0.770743 0.764435
vt 0.906679 0.229126
vt 0.907094 0.406114
vt 0.907508 0.582982
vt 0.907934 0.764435
vt 0.099254 0.229126
vt 0.098838 0.406114
vt 0.098423 0.582982
vt 0.097996 0.764435
vt 0.098213 0.672366
vt 0.098630 0.494548
vt 0.099045 0.318002
vt 0.099465 0.139243
vt 0.907718 0.672366
vt 0.907301 0.494548
vt 0.906887 0.318002
vt 0.906468 0.139243
vt 0.770601 0.672366
vt 0.770325 0.494548
vt 0.770051 0.318002
vt 0.769774 0.139243
vt 0.636698 0.672366
vt 0.636561 0.494548
vt 0.636424 0.318002
vt 0.636285 0.139243
vt 0.502973 0.672366
vt 0.502973 0.494548
vt 0.502973 0.318002
vt 0.502973 0.139243
vt 0.369247 0.672366
vt 0.369385 0.494548
vt 0.369522 0.318002
vt 0.369661 0.139243
vt 0.235343 0.672366
vt 0.235619 0.494548
vt 0.235893 0.318002
vt 0.236171 0.139243
vt 0.235054 0.858459
vt 0.369103 0.858459
vt 0.502973 0.858459
vt 0.636843 0.858459
vt 0.770889 0.858459
vt 0.908154 0.858459
vt 0.097775 0.858459
s 1
f 165/165/1 49/49/2 4/4/3 50/50/4
f 164/164/5 53/53/6 5/5/7 79/79/8
f 163/163/9 54/54/10 6/6/11 83/83/12
f 162/162/13 55/55/14 7/7/14 87/87/13
f 161/161/13 56/56/14 8/8/14 91/91/15
f 160/160/15 57/57/16 9/9/17 95/95/18
f 159/159/19 58/58/20 10/10/21 99/99/22
f 158/158/23 103/103/24 48/48/25 70/70/26
f 157/157/27 104/104/28 47/47/29 102/102/30
f 156/156/31 105/105/32 46/46/33 101/101/34
f 155/155/35 106/106/36 45/45/37 100/100/38
f 154/154/39 107/107/40 44/44/41 69/69/42
f 153/153/43 108/108/44 43/43/45 98/98/46
f 152/152/47 109/109/48 42/42/49 97/97/50
f 151/151/51 110/110/52 41/41/53 96/96/54
f 150/150/39 111/111/55 40/40/55 68/68/39
f 149/149/56 112/112/44 39/39/44 94/94/56
f 148/148/57 113/113/58 38/38/48 93/93/57
f 147/147/59 114/114/52 37/37/52 92/92/59
f 146/146/60 115/115/61 36/36/55 67/67/60
f 145/145/62 116/116/63 35/35/63 90/90/56
f 144/144/64 117/117/58 34/34/58 89/89/64
f 143/143/65 118/118/66 33/33/66 88/88/67
f 142/142/68 119/119/69 32/32/70 66/66/71
f 141/141/72 120/120/73 31/31/74 86/86/75
f 140/140/76 121/121/77 30/30/78 85/85/79
f 139/139/80 122/122/81 29/29/82 84/84/83
f 138/138/84 123/123/85 28/28/86 65/65/87
f 137/137/88 124/124/89 27/27/90 82/82/91
f 136/136/92 125/125/93 26/26/94 81/81/95
f 135/135/96 126/126/97 25/25/98 80/80/99
f 134/134/100 127/127/101 17/17/102 71/71/103
f 133/133/104 128/128/105 18/18/106 72/72/107
f 132/132/108 129/129/109 19/19/110 73/73/111
f 131/131/112 130/130/113 20/20/114 74/74/115
f 129/129/109 131/131/112 74/74/115 19/19/110
f 46/46/33 100/100/38 131/131/112 129/129/109
f 100/100/38 45/45/37 130/130/113 131/131/112
f 128/128/105 132/132/108 73/73/111 18/18/106
f 47/47/29 101/101/34 132/132/108 128/128/105
f 101/101/34 46/46/33 129/129/109 132/132/108
f 127/127/101 133/133/104 72/72/107 17/17/102
f 48/48/25 102/102/30 133/133/104 127/127/101
f 102/102/30 47/47/29 128/128/105 133/133/104
f 59/59/116 134/134/100 71/71/103 3/3/117
f 11/11/118 70/70/26 134/134/100 59/59/116
f 70/70/26 48/48/25 127/127/101 134/134/100
f 125/125/93 135/135/96 80/80/99 26/26/94
f 22/22/119 76/76/120 135/135/96 125/125/93
f 76/76/120 21/21/121 126/126/97 135/135/96
f 124/124/89 136/136/92 81/81/95 27/27/90
f 23/23/122 77/77/123 136/136/92 124/124/89
f 77/77/123 22/22/119 125/125/93 136/136/92
f 123/123/85 137/137/88 82/82/91 28/28/86
f 24/24/124 78/78/125 137/137/88 123/123/85
f 78/78/125 23/23/122 124/124/89 137/137/88
f 51/51/126 138/138/84 65/65/87 16/16/127
f 2/2/128 52/52/129 138/138/84 51/51/126
f 52/52/129 24/24/124 123/123/85 138/138/84
f 121/121/77 139/139/80 84/84/83 30/30/78
f 26/26/94 80/80/99 139/139/80 121/121/77
f 80/80/99 25/25/98 122/122/81 139/139/80
f 120/120/73 140/140/76 85/85/79 31/31/74
f 27/27/90 81/81/95 140/140/76 120/120/73
f 81/81/95 26/26/94 121/121/77 140/140/76
f 119/119/69 141/141/72 86/86/75 32/32/70
f 28/28/86 82/82/91 141/141/72 119/119/69
f 82/82/91 27/27/90 120/120/73 141/141/72
f 64/64/130 142/142/68 66/66/71 15/15/131
f 16/16/127 65/65/87 142/142/68 64/64/130
f 65/65/87 28/28/86 119/119/69 142/142/68
f 117/117/58 143/143/65 88/88/67 34/34/58
f 30/30/78 84/84/83 143/143/65 117/117/58
f 84/84/83 29/29/82 118/118/66 143/143/65
f 116/116/63 144/144/64 89/89/64 35/35/63
f 31/31/74 85/85/79 144/144/64 116/116/63
f 85/85/79 30/30/78 117/117/58 144/144/64
f 115/115/61 145/145/62 90/90/56 36/36/55
f 32/32/70 86/86/75 145/145/62 115/115/61
f 86/86/75 31/31/74 116/116/63 145/145/62
f 63/63/132 146/146/60 67/67/60 14/14/132
f 15/15/131 66/66/71 146/146/60 63/63/132
f 66/66/71 32/32/70 115/115/61 146/146/60
f 113/113/58 147/147/59 92/92/59 38/38/48
f 34/34/58 88/88/67 147/147/59 113/113/58
f 88/88/67 33/33/66 114/114/52 147/147/59
f 112/112/44 148/148/57 93/93/57 39/39/44
f 35/35/63 89/89/64 148/148/57 112/112/44
f 89/89/64 34/34/58 113/113/58 148/148/57
f 111/111/55 149/149/56 94/94/56 40/40/55
f 36/36/55 90/90/56 149/149/56 111/111/55
f 90/90/56 35/35/63 112/112/44 149/149/56
f 62/62/133 150/150/39 68/68/39 13/13/133
f 14/14/132 67/67/60 150/150/39 62/62/133
f 67/67/60 36/36/55 111/111/55 150/150/39
f 109/109/48 151/151/51 96/96/54 42/42/49
f 38/38/48 92/92/59 151/151/51 109/109/48
f 92/92/59 37/37/52 110/110/52 151/151/51
f 108/108/44 152/152/47 97/97/50 43/43/45
f 39/39/44 93/93/57 152/152/47 108/108/44
f 93/93/57 38/38/48 109/109/48 152/152/47
f 107/107/40 153/153/43 98/98/46 44/44/41
f 40/40/55 94/94/56 153/153/43 107/107/40
f 94/94/56 39/39/44 108/108/44 153/153/43
f 61/61/133 154/154/39 69/69/42 12/12/134
f 13/13/133 68/68/39 154/154/39 61/61/133
f 68/68/39 40/40/55 107/107/40 154/154/39
f 105/105/32 155/155/35 100/100/38 46/46/33
f 42/42/49 96/96/54 155/155/35 105/105/32
f 96/96/54 41/41/53 106/106/36 155/155/35
f 104/104/28 156/156/31 101/101/34 47/47/29
f 43/43/45 97/97/50 156/156/31 104/104/28
f 97/97/50 42/42/49 105/105/32 156/156/31
f 103/103/24 157/157/27 102/102/30 48/48/25
f 44/44/41 98/98/46 157/157/27 103/103/24
f 98/98/46 43/43/45 104/104/28 157/157/27
f 60/60/135 158/158/23 70/70/26 11/11/118
f 12/12/134 69/69/42 158/158/23 60/60/135
f 69/69/42 44/44/41 103/103/24 158/158/23
f 106/106/36 159/159/19 99/99/22 45/45/37
f 41/41/53 95/95/18 159/159/19 106/106/36
f 95/95/18 9/9/17 58/58/20 159/159/19
f 110/110/52 160/160/15 95/95/18 41/41/53
f 37/37/52 91/91/15 160/160/15 110/110/52
f 91/91/15 8/8/14 57/57/16 160/160/15
f 114/114/52 161/161/13 91/91/15 37/37/52
f 33/33/66 87/87/13 161/161/13 114/114/52
f 87/87/13 7/7/14 56/56/14 161/161/13
f 118/118/66 162/162/13 87/87/13 33/33/66
f 29/29/82 83/83/12 162/162/13 118/118/66
f 83/83/12 6/6/11 55/55/14 162/162/13
f 122/122/81 163/163/9 83/83/12 29/29/82
f 25/25/98 79/79/8 163/163/9 122/122/81
f 79/79/8 5/5/7 54/54/10 163/163/9
f 126/126/97 164/164/5 79/79/8 25/25/98
f 21/21/121 75/75/136 164/164/5 126/126/97
f 75/75/136 1/1/137 53/53/6 164/164/5
f 130/130/113 165/165/1 50/50/4 20/20/114
f 45/45/37 99/99/22 165/165/1 130/130/113
f 99/99/22 10/10/21 49/49/2 165/165/1
