# Blender 3.1.0
# www.blender.org
o Frame
v -0.967822 -1.285939 0.074230
v -0.967822 1.285940 0.074230
v -1.023265 -1.359606 -0.028499
v -1.023265 1.359607 -0.028499
v 0.967822 -1.285939 0.074230
v 0.967822 1.285940 0.074230
v 1.023265 -1.359606 -0.028499
v 1.023265 1.359607 -0.028499
v -1.023265 -1.359606 0.074230
v -1.023265 1.359607 0.074230
v 1.023265 1.359607 0.074230
v 1.023265 -1.359606 0.074230
v -0.967822 -1.285939 0.013796
v -0.967822 1.285940 0.013796
v 0.967822 1.285940 0.013796
v 0.967822 -1.285939 0.013796
vn -1.0000 -0.0000 -0.0000
vn -0.0000 -0.0000 -1.0000
vn 1.0000 -0.0000 -0.0000
vn -0.0000 1.0000 -0.0000
vn -0.0000 -1.0000 -0.0000
vn -0.0000 -0.0000 1.0000
vt 0.732375 0.818208
vt 0.573579 0.007666
vt 0.282957 0.565914
vt 0.573579 0.275291
vt 0.282957 0.833539
vt 0.833539 0.282957
vt 0.000000 0.000000
vt 0.282957 0.282957
vt 0.000000 0.282957
vt 0.282957 0.565914
vt 0.841205 0.007666
vt 0.732374 0.550582
vt 0.841205 0.275291
vt 0.833539 0.550582
vt 0.732374 0.818208
vt 0.000000 0.282957
vt 0.565914 0.000000
vt 0.565914 0.282957
vt 0.565914 0.282957
vt 0.000000 0.565914
vt 0.282957 0.000000
vt 0.282957 0.565914
vt 0.565914 0.000000
vt 0.282957 0.282957
vt 0.282957 0.848871
vt 0.565914 0.282957
vt 0.282957 0.282957
vt 0.000000 0.848871
vt 0.848871 0.282957
vt 0.282957 0.000000
vt 0.565914 0.565914
vt 0.848871 0.000000
vt 0.898835 0.818208
vt 0.565914 0.282957
vt 0.449418 0.565914
vt 0.565914 0.550582
vt 0.449418 0.833539
vt 1.000000 0.282957
vt 0.833539 0.550582
vt 1.000000 0.550582
vt 0.565914 0.818208
vt 0.898835 0.550582
vt 0.833539 0.282957
vt 0.565914 0.550582
s 0
f 9/21/1 10/24/1 4/9/1 3/7/1
f 3/8/2 4/10/2 8/20/2 7/16/2
f 7/17/3 8/19/3 11/27/3 12/30/3
f 1/1/4 5/12/4 16/42/4 13/33/4
f 3/8/5 7/18/5 12/31/5 9/22/5
f 8/20/4 4/10/4 10/25/4 11/28/4
f 1/2/6 2/4/6 10/26/6 9/23/6
f 6/13/6 5/11/6 12/32/6 11/29/6
f 5/11/6 1/2/6 9/23/6 12/32/6
f 2/4/6 6/13/6 11/29/6 10/26/6
f 16/43/6 15/39/6 14/36/6 13/34/6
f 2/5/3 1/3/3 13/35/3 14/37/3
f 6/14/5 2/6/5 14/38/5 15/40/5
f 5/12/1 6/15/1 15/41/1 16/44/1
