# Blender 3.1.0
# www.blender.org
o Lamp
v -0.000000 -0.659202 -0.063264
v -0.000000 -0.760172 -0.661440
v 0.012342 -0.659202 -0.062048
v 0.129041 -0.760172 -0.648731
v 0.024210 -0.659202 -0.058448
v 0.253122 -0.760172 -0.611091
v 0.035147 -0.659202 -0.052602
v 0.367476 -0.760172 -0.549967
v 0.044734 -0.659202 -0.044734
v 0.467709 -0.760172 -0.467709
v 0.052602 -0.659202 -0.035147
v 0.549967 -0.760172 -0.367476
v 0.058448 -0.659202 -0.024210
v 0.611091 -0.760172 -0.253122
v 0.062048 -0.659202 -0.012342
v 0.648731 -0.760172 -0.129041
v 0.063264 -0.659202 0.000000
v 0.661440 -0.760172 0.000000
v 0.062048 -0.659202 0.012342
v 0.648731 -0.760172 0.129041
v 0.058448 -0.659202 0.024210
v 0.611091 -0.760172 0.253122
v 0.052602 -0.659202 0.035147
v 0.549967 -0.760172 0.367476
v 0.044734 -0.659202 0.044734
v 0.467709 -0.760172 0.467709
v 0.035147 -0.659202 0.052602
v 0.367476 -0.760172 0.549967
v 0.024210 -0.659202 0.058448
v 0.253122 -0.760172 0.611091
v 0.012342 -0.659202 0.062048
v 0.129041 -0.760172 0.648731
v -0.000000 -0.659202 0.063264
v -0.000000 -0.760172 0.661440
v -0.012342 -0.659202 0.062048
v -0.129041 -0.760172 0.648731
v -0.024210 -0.659202 0.058448
v -0.253122 -0.760172 0.611091
v -0.035147 -0.659202 0.052602
v -0.367477 -0.760172 0.549967
v -0.044734 -0.659202 0.044734
v -0.467709 -0.760172 0.467709
v -0.052602 -0.659202 0.035147
v -0.549967 -0.760172 0.367477
v -0.058448 -0.659202 0.024210
v -0.611091 -0.760172 0.253122
v -0.062048 -0.659202 0.012342
v -0.648731 -0.760172 0.129041
v -0.063264 -0.659202 -0.000000
v -0.661440 -0.760172 -0.000000
v -0.062048 -0.659202 -0.012342
v -0.648731 -0.760172 -0.129041
v -0.058448 -0.659202 -0.024210
v -0.611091 -0.760172 -0.253122
v -0.052602 -0.659202 -0.035147
v -0.549967 -0.760172 -0.367476
v -0.044734 -0.659202 -0.044734
v -0.467709 -0.760172 -0.467709
v -0.035147 -0.659202 -0.052602
v -0.367477 -0.760172 -0.549967
v -0.024210 -0.659202 -0.058448
v -0.253122 -0.760172 -0.611091
v -0.012342 -0.659202 -0.062048
v -0.129041 -0.760172 -0.648731
v -0.000000 -0.659202 -0.661440
v 0.129041 -0.659202 -0.648731
v 0.253122 -0.659202 -0.611091
v 0.367476 -0.659202 -0.549967
v 0.467709 -0.659202 -0.467709
v 0.549967 -0.659202 -0.367476
v 0.611091 -0.659202 -0.253122
v 0.648731 -0.659202 -0.129041
v 0.661440 -0.659202 0.000000
v 0.648731 -0.659202 0.129041
v 0.611091 -0.659202 0.253122
v 0.549967 -0.659202 0.367476
v 0.467709 -0.659202 0.467709
v 0.367476 -0.659202 0.549967
v 0.253122 -0.659202 0.611091
v 0.129041 -0.659202 0.648731
v -0.000000 -0.659202 0.661440
v -0.129041 -0.659202 0.648731
v -0.253122 -0.659202 0.611091
v -0.367477 -0.659202 0.549967
v -0.467709 -0.659202 0.467709
v -0.549967 -0.659202 0.367477
v -0.611091 -0.659202 0.253122
v -0.648731 -0.659202 0.129041
v -0.661440 -0.659202 -0.000000
v -0.648731 -0.659202 -0.129041
v -0.611091 -0.659202 -0.253122
v -0.549967 -0.659202 -0.367476
v -0.467709 -0.659202 -0.467709
v -0.367477 -0.659202 -0.549967
v -0.253122 -0.659202 -0.611091
v -0.129041 -0.659202 -0.648731
v -0.000000 3.383327 -0.063264
v 0.012342 3.383327 -0.062048
v 0.024210 3.383327 -0.058448
v 0.035147 3.383327 -0.052602
v 0.044734 3.383327 -0.044734
v 0.052602 3.383327 -0.035147
v 0.058448 3.383327 -0.024210
v 0.062048 3.383327 -0.012342
v 0.063264 3.383327 0.000000
v 0.062048 3.383327 0.012342
v 0.058448 3.383327 0.024210
v 0.052602 3.383327 0.035147
v 0.044734 3.383327 0.044734
v 0.035147 3.383327 0.052602
v 0.024210 3.383327 0.058448
v 0.012342 3.383327 0.062048
v -0.000000 3.383327 0.063264
v -0.012342 3.383327 0.062048
v -0.024210 3.383327 0.058448
v -0.035147 3.383327 0.052602
v -0.044734 3.383327 0.044734
v -0.052602 3.383327 0.035147
v -0.058448 3.383327 0.024210
v -0.062048 3.383327 0.012342
v -0.063264 3.383327 -0.000000
v -0.062048 3.383327 -0.012342
v -0.058448 3.383327 -0.024210
v -0.052602 3.383327 -0.035147
v -0.044734 3.383327 -0.044734
v -0.035147 3.383327 -0.052602
v -0.024210 3.383327 -0.058448
v -0.012342 3.383327 -0.062048
vn -0.0000 -0.0000 -1.0000
vn 0.1951 -0.0000 -0.9808
vn 0.3827 -0.0000 -0.9239
vn 0.5556 -0.0000 -0.8315
vn 0.7071 -0.0000 -0.7071
vn 0.8315 -0.0000 -0.5556
vn 0.9239 -0.0000 -0.3827
vn 0.9808 -0.0000 -0.1951
vn 1.0000 -0.0000 -0.0000
vn 0.9808 -0.0000 0.1951
vn 0.9239 -0.0000 0.3827
vn 0.8315 -0.0000 0.5556
vn 0.7071 -0.0000 0.7071
vn 0.5556 -0.0000 0.8315
vn 0.3827 -0.0000 0.9239
vn 0.1951 -0.0000 0.9808
vn -0.0000 -0.0000 1.0000
vn -0.1951 -0.0000 0.9808
vn -0.3827 -0.0000 0.9239
vn -0.5556 -0.0000 0.8315
vn -0.7071 -0.0000 0.7071
vn -0.8315 -0.0000 0.5556
vn -0.9239 -0.0000 0.3827
vn -0.9808 -0.0000 0.1951
vn -1.0000 -0.0000 -0.0000
vn -0.9808 -0.0000 -0.1951
vn -0.9239 -0.0000 -0.3827
vn -0.8315 -0.0000 -0.5556
vn -0.7071 -0.0000 -0.7071
vn -0.5556 -0.0000 -0.8315
vn -0.3827 -0.0000 -0.9239
vn -0.0000 -1.0000 -0.0000
vn -0.1951 -0.0000 -0.9808
vn -0.0000 1.0000 -0.0000
vt 0.750000 0.272955
vt 1.000000 1.000000
vt 0.250000 0.490000
vt 0.000000 1.000000
vt 0.754478 0.272514
vt 0.968750 1.000000
vt 0.296822 0.485388
vt 0.758784 0.271208
vt 0.937500 1.000000
vt 0.341844 0.471731
vt 0.762753 0.269086
vt 0.906250 1.000000
vt 0.383337 0.449553
vt 0.766231 0.266232
vt 0.875000 1.000000
vt 0.419706 0.419706
vt 0.769086 0.262753
vt 0.843750 1.000000
vt 0.449553 0.383337
vt 0.771208 0.258784
vt 0.812500 1.000000
vt 0.471731 0.341844
vt 0.772514 0.254478
vt 0.781250 1.000000
vt 0.485388 0.296822
vt 0.772955 0.250000
vt 0.750000 1.000000
vt 0.490000 0.250000
vt 0.772514 0.245522
vt 0.718750 1.000000
vt 0.485388 0.203178
vt 0.771207 0.241216
vt 0.687500 1.000000
vt 0.471731 0.158156
vt 0.769086 0.237247
vt 0.656250 1.000000
vt 0.449553 0.116663
vt 0.766231 0.233768
vt 0.625000 1.000000
vt 0.419706 0.080294
vt 0.762753 0.230914
vt 0.593750 1.000000
vt 0.383337 0.050447
vt 0.758784 0.228792
vt 0.562500 1.000000
vt 0.341844 0.028269
vt 0.754478 0.227486
vt 0.531250 1.000000
vt 0.296822 0.014612
vt 0.750000 0.227045
vt 0.500000 1.000000
vt 0.250000 0.010000
vt 0.745522 0.227486
vt 0.468750 1.000000
vt 0.203178 0.014612
vt 0.741215 0.228792
vt 0.437500 1.000000
vt 0.158156 0.028269
vt 0.737247 0.230914
vt 0.406250 1.000000
vt 0.116663 0.050447
vt 0.733769 0.233768
vt 0.375000 1.000000
vt 0.080294 0.080294
vt 0.730914 0.237247
vt 0.343750 1.000000
vt 0.050447 0.116663
vt 0.728792 0.241216
vt 0.312500 1.000000
vt 0.028269 0.158156
vt 0.727486 0.245522
vt 0.281250 1.000000
vt 0.014612 0.203178
vt 0.727045 0.250000
vt 0.250000 1.000000
vt 0.010000 0.250000
vt 0.727486 0.254478
vt 0.218750 1.000000
vt 0.014612 0.296822
vt 0.728792 0.258784
vt 0.187500 1.000000
vt 0.028269 0.341844
vt 0.730914 0.262753
vt 0.156250 1.000000
vt 0.050447 0.383337
vt 0.733768 0.266232
vt 0.125000 1.000000
vt 0.080294 0.419706
vt 0.737247 0.269086
vt 0.093750 1.000000
vt 0.116663 0.449553
vt 0.741215 0.271208
vt 0.158156 0.471731
vt 0.062500 1.000000
vt 0.745522 0.272514
vt 0.203178 0.485388
vt 0.031250 1.000000
vt 1.000000 0.500000
vt 0.000000 0.500000
vt 0.750000 0.490000
vt 0.968750 0.500000
vt 0.796822 0.485388
vt 0.937500 0.500000
vt 0.841844 0.471731
vt 0.906250 0.500000
vt 0.883337 0.449553
vt 0.875000 0.500000
vt 0.919706 0.419706
vt 0.843750 0.500000
vt 0.949553 0.383337
vt 0.812500 0.500000
vt 0.971731 0.341844
vt 0.781250 0.500000
vt 0.985388 0.296822
vt 0.750000 0.500000
vt 0.990000 0.250000
vt 0.718750 0.500000
vt 0.985388 0.203178
vt 0.687500 0.500000
vt 0.971731 0.158156
vt 0.656250 0.500000
vt 0.949553 0.116663
vt 0.625000 0.500000
vt 0.919706 0.080294
vt 0.593750 0.500000
vt 0.883337 0.050447
vt 0.562500 0.500000
vt 0.841844 0.028269
vt 0.531250 0.500000
vt 0.796822 0.014612
vt 0.500000 0.500000
vt 0.750000 0.010000
vt 0.468750 0.500000
vt 0.703178 0.014612
vt 0.437500 0.500000
vt 0.658156 0.028269
vt 0.406250 0.500000
vt 0.616663 0.050447
vt 0.375000 0.500000
vt 0.580294 0.080294
vt 0.343750 0.500000
vt 0.550447 0.116663
vt 0.312500 0.500000
vt 0.528269 0.158156
vt 0.281250 0.500000
vt 0.514612 0.203178
vt 0.250000 0.500000
vt 0.510000 0.250000
vt 0.218750 0.500000
vt 0.514612 0.296822
vt 0.187500 0.500000
vt 0.528269 0.341844
vt 0.156250 0.500000
vt 0.550447 0.383337
vt 0.125000 0.500000
vt 0.580294 0.419706
vt 0.093750 0.500000
vt 0.616663 0.449553
vt 0.062500 0.500000
vt 0.658156 0.471731
vt 0.031250 0.500000
vt 0.703178 0.485388
vt 0.750000 0.272955
vt 0.754478 0.272514
vt 0.758784 0.271208
vt 0.762753 0.269086
vt 0.766231 0.266232
vt 0.769086 0.262753
vt 0.771208 0.258784
vt 0.772514 0.254478
vt 0.772955 0.250000
vt 0.772514 0.245522
vt 0.771207 0.241216
vt 0.769086 0.237247
vt 0.766231 0.233768
vt 0.762753 0.230914
vt 0.758784 0.228792
vt 0.754478 0.227486
vt 0.750000 0.227045
vt 0.745522 0.227486
vt 0.741215 0.228792
vt 0.737247 0.230914
vt 0.733769 0.233768
vt 0.730914 0.237247
vt 0.728792 0.241216
vt 0.727486 0.245522
vt 0.727045 0.250000
vt 0.727486 0.254478
vt 0.728792 0.258784
vt 0.730914 0.262753
vt 0.733768 0.266232
vt 0.737247 0.269086
vt 0.741215 0.271208
vt 0.745522 0.272514
s 1
f 65/98/1 66/101/2 4/6/2 2/2/1
f 66/101/2 67/103/3 6/9/3 4/6/2
f 67/103/3 68/105/4 8/12/4 6/9/3
f 68/105/4 69/107/5 10/15/5 8/12/4
f 69/107/5 70/109/6 12/18/6 10/15/5
f 70/109/6 71/111/7 14/21/7 12/18/6
f 71/111/7 72/113/8 16/24/8 14/21/7
f 72/113/8 73/115/9 18/27/9 16/24/8
f 73/115/9 74/117/10 20/30/10 18/27/9
f 74/117/10 75/119/11 22/33/11 20/30/10
f 75/119/11 76/121/12 24/36/12 22/33/11
f 76/121/12 77/123/13 26/39/13 24/36/12
f 77/123/13 78/125/14 28/42/14 26/39/13
f 78/125/14 79/127/15 30/45/15 28/42/14
f 79/127/15 80/129/16 32/48/16 30/45/15
f 80/129/16 81/131/17 34/51/17 32/48/16
f 81/131/17 82/133/18 36/54/18 34/51/17
f 82/133/18 83/135/19 38/57/19 36/54/18
f 83/135/19 84/137/20 40/60/20 38/57/19
f 84/137/20 85/139/21 42/63/21 40/60/20
f 85/139/21 86/141/22 44/66/22 42/63/21
f 86/141/22 87/143/23 46/69/23 44/66/22
f 87/143/23 88/145/24 48/72/24 46/69/23
f 88/145/24 89/147/25 50/75/25 48/72/24
f 89/147/25 90/149/26 52/78/26 50/75/25
f 90/149/26 91/151/27 54/81/27 52/78/26
f 91/151/27 92/153/28 56/84/28 54/81/27
f 92/153/28 93/155/29 58/87/29 56/84/28
f 93/155/29 94/157/30 60/90/30 58/87/29
f 94/157/30 95/159/31 62/94/31 60/90/30
f 4/7/32 6/10/32 8/13/32 10/16/32 12/19/32 14/22/32 16/25/32 18/28/32 20/31/32 22/34/32 24/37/32 26/40/32 28/43/32 30/46/32 32/49/32 34/52/32 36/55/32 38/58/32 40/61/32 42/64/32 44/67/32 46/70/32 48/73/32 50/76/32 52/79/32 54/82/32 56/85/32 58/88/32 60/91/32 62/93/32 64/96/32 2/3/32
f 95/159/31 96/161/33 64/97/33 62/94/31
f 96/161/33 65/99/1 2/4/1 64/97/33
f 47/71/24 120/186/24 121/187/25 49/74/25
f 3/5/34 66/102/34 65/100/34 1/1/34
f 5/8/34 67/104/34 66/102/34 3/5/34
f 7/11/34 68/106/34 67/104/34 5/8/34
f 9/14/34 69/108/34 68/106/34 7/11/34
f 11/17/34 70/110/34 69/108/34 9/14/34
f 13/20/34 71/112/34 70/110/34 11/17/34
f 15/23/34 72/114/34 71/112/34 13/20/34
f 17/26/34 73/116/34 72/114/34 15/23/34
f 19/29/34 74/118/34 73/116/34 17/26/34
f 21/32/34 75/120/34 74/118/34 19/29/34
f 23/35/34 76/122/34 75/120/34 21/32/34
f 25/38/34 77/124/34 76/122/34 23/35/34
f 27/41/34 78/126/34 77/124/34 25/38/34
f 29/44/34 79/128/34 78/126/34 27/41/34
f 31/47/34 80/130/34 79/128/34 29/44/34
f 33/50/34 81/132/34 80/130/34 31/47/34
f 35/53/34 82/134/34 81/132/34 33/50/34
f 37/56/34 83/136/34 82/134/34 35/53/34
f 39/59/34 84/138/34 83/136/34 37/56/34
f 41/62/34 85/140/34 84/138/34 39/59/34
f 43/65/34 86/142/34 85/140/34 41/62/34
f 45/68/34 87/144/34 86/142/34 43/65/34
f 47/71/34 88/146/34 87/144/34 45/68/34
f 49/74/34 89/148/34 88/146/34 47/71/34
f 51/77/34 90/150/34 89/148/34 49/74/34
f 53/80/34 91/152/34 90/150/34 51/77/34
f 55/83/34 92/154/34 91/152/34 53/80/34
f 57/86/34 93/156/34 92/154/34 55/83/34
f 59/89/34 94/158/34 93/156/34 57/86/34
f 61/92/34 95/160/34 94/158/34 59/89/34
f 63/95/34 96/162/34 95/160/34 61/92/34
f 1/1/34 65/100/34 96/162/34 63/95/34
f 97/163/34 128/194/34 127/193/34 126/192/34 125/191/34 124/190/34 123/189/34 122/188/34 121/187/34 120/186/34 119/185/34 118/184/34 117/183/34 116/182/34 115/181/34 114/180/34 113/179/34 112/178/34 111/177/34 110/176/34 109/175/34 108/174/34 107/173/34 106/172/34 105/171/34 104/170/34 103/169/34 102/168/34 101/167/34 100/166/34 99/165/34 98/164/34
f 21/32/11 107/173/11 108/174/12 23/35/12
f 49/74/25 121/187/25 122/188/26 51/77/26
f 23/35/12 108/174/12 109/175/13 25/38/13
f 51/77/26 122/188/26 123/189/27 53/80/27
f 25/38/13 109/175/13 110/176/14 27/41/14
f 53/80/27 123/189/27 124/190/28 55/83/28
f 27/41/14 110/176/14 111/177/15 29/44/15
f 1/1/1 97/163/1 98/164/2 3/5/2
f 55/83/28 124/190/28 125/191/29 57/86/29
f 29/44/15 111/177/15 112/178/16 31/47/16
f 3/5/2 98/164/2 99/165/3 5/8/3
f 57/86/29 125/191/29 126/192/30 59/89/30
f 31/47/16 112/178/16 113/179/17 33/50/17
f 5/8/3 99/165/3 100/166/4 7/11/4
f 59/89/30 126/192/30 127/193/31 61/92/31
f 33/50/17 113/179/17 114/180/18 35/53/18
f 7/11/4 100/166/4 101/167/5 9/14/5
f 61/92/31 127/193/31 128/194/33 63/95/33
f 35/53/18 114/180/18 115/181/19 37/56/19
f 9/14/5 101/167/5 102/168/6 11/17/6
f 63/95/33 128/194/33 97/163/1 1/1/1
f 37/56/19 115/181/19 116/182/20 39/59/20
f 11/17/6 102/168/6 103/169/7 13/20/7
f 39/59/20 116/182/20 117/183/21 41/62/21
f 13/20/7 103/169/7 104/170/8 15/23/8
f 41/62/21 117/183/21 118/184/22 43/65/22
f 15/23/8 104/170/8 105/171/9 17/26/9
f 43/65/22 118/184/22 119/185/23 45/68/23
f 17/26/9 105/171/9 106/172/10 19/29/10
f 45/68/23 119/185/23 120/186/24 47/71/24
f 19/29/10 106/172/10 107/173/11 21/32/11
