# Blender 3.1.0
# www.blender.org
o Screen
v -0.598481 0.436443 0.564886
v 0.451797 0.436443 0.564886
v -0.598481 1.108159 0.514845
v 0.451797 1.108159 0.514845
v -0.388425 0.436443 0.608286
v -0.178370 0.436443 0.626971
v 0.031686 0.436443 0.626971
v 0.241741 0.436443 0.608286
v 0.241741 1.108159 0.558245
v 0.031686 1.108159 0.576930
v -0.178370 1.108159 0.576930
v -0.388425 1.108159 0.558245
v -0.598481 0.940230 0.558246
v -0.598481 0.772301 0.585882
v -0.598481 0.604372 0.592971
v 0.451797 0.604372 0.592971
v 0.451797 0.772301 0.585882
v 0.451797 0.940230 0.558246
v -0.388425 0.604372 0.648977
v -0.388425 0.772301 0.647044
v -0.388425 0.940230 0.614252
v -0.178370 0.604372 0.673597
v -0.178370 0.772301 0.675049
v -0.178370 0.940230 0.638872
v 0.031686 0.604372 0.673597
v 0.031686 0.772301 0.675049
v 0.031686 0.940230 0.638872
v 0.241741 0.604372 0.648977
v 0.241741 0.772301 0.647044
v 0.241741 0.940230 0.614252
vn 0.1403 0.0811 0.3151
vn 0.1900 0.0737 0.3060
vn 0.1747 0.0904 0.3053
vn 0.1294 0.1005 0.3114
vn -0.1900 0.0737 0.3060
vn -0.1403 0.0811 0.3151
vn -0.1294 0.1005 0.3114
vn -0.1747 0.0904 0.3053
vn -0.0445 0.0915 0.3237
vn -0.0400 0.1140 0.3168
vn 0.0445 0.0915 0.3237
vn 0.0400 0.1140 0.3168
vn 0.0408 -0.0874 0.3251
vn 0.1316 -0.0739 0.3184
vn 0.1428 -0.0351 0.3230
vn 0.0455 -0.0444 0.3334
vn 0.1540 0.0329 0.3211
vn 0.0499 0.0340 0.3344
vn -0.0408 -0.0874 0.3251
vn -0.0455 -0.0444 0.3334
vn -0.0499 0.0340 0.3344
vn -0.1316 -0.0739 0.3184
vn -0.1428 -0.0351 0.3230
vn -0.1540 0.0329 0.3211
vn -0.1781 -0.0637 0.3112
vn -0.1945 -0.0284 0.3124
vn -0.2080 0.0323 0.3083
vn 0.1781 -0.0637 0.3112
vn 0.1945 -0.0284 0.3124
vn 0.2080 0.0323 0.3083
vt 0.000000 0.000000
vt 1.000000 0.000000
vt 0.000000 1.000000
vt 1.000000 1.000000
vt 0.200000 0.000000
vt 0.400000 0.000000
vt 0.600000 0.000000
vt 0.800000 0.000000
vt 0.800000 1.000000
vt 0.600000 1.000000
vt 0.400000 1.000000
vt 0.200000 1.000000
vt 0.000000 0.750000
vt 0.000000 0.500000
vt 0.000000 0.250000
vt 1.000000 0.250000
vt 1.000000 0.500000
vt 1.000000 0.750000
vt 0.200000 0.250000
vt 0.200000 0.500000
vt 0.200000 0.750000
vt 0.400000 0.250000
vt 0.400000 0.500000
vt 0.400000 0.750000
vt 0.600000 0.250000
vt 0.600000 0.500000
vt 0.600000 0.750000
vt 0.800000 0.250000
vt 0.800000 0.500000
vt 0.800000 0.750000
s 1
f 30/30/1 18/18/2 4/4/3 9/9/4
f 13/13/5 21/21/6 12/12/7 3/3/8
f 21/21/6 24/24/9 11/11/10 12/12/7
f 24/24/9 27/27/11 10/10/12 11/11/10
f 27/27/11 30/30/1 9/9/4 10/10/12
f 7/7/13 8/8/14 28/28/15 25/25/16
f 25/25/16 28/28/15 29/29/17 26/26/18
f 26/26/18 29/29/17 30/30/1 27/27/11
f 6/6/19 7/7/13 25/25/16 22/22/20
f 22/22/20 25/25/16 26/26/18 23/23/21
f 23/23/21 26/26/18 27/27/11 24/24/9
f 5/5/22 6/6/19 22/22/20 19/19/23
f 19/19/23 22/22/20 23/23/21 20/20/24
f 20/20/24 23/23/21 24/24/9 21/21/6
f 1/1/25 5/5/22 19/19/23 15/15/26
f 15/15/26 19/19/23 20/20/24 14/14/27
f 14/14/27 20/20/24 21/21/6 13/13/5
f 8/8/14 2/2/28 16/16/29 28/28/15
f 28/28/15 16/16/29 17/17/30 29/29/17
f 29/29/17 17/17/30 18/18/2 30/30/1
