# Blender 3.1.0
# www.blender.org
o Cube
v 0.100000 0.014496 -0.100000
v 0.100000 -0.014496 -0.100000
v 0.100000 0.014496 0.100000
v 0.100000 -0.014496 0.100000
v -0.100000 0.014496 -0.100000
v -0.100000 -0.014496 -0.100000
v -0.100000 0.014496 0.100000
v -0.100000 -0.014496 0.100000
vn -0.0000 0.1000 -0.0000
vn -0.0000 -0.0000 0.1000
vn -0.1000 -0.0000 -0.0000
vn -0.0000 -0.1000 -0.0000
vn 0.1000 -0.0000 -0.0000
vn -0.0000 -0.0000 -0.1000
vt 0.000000 0.000000
vt 0.644962 0.500000
vt 0.717442 0.000000
vt 0.500000 0.500000
vt 0.717442 0.500000
vt 0.789923 0.000000
vt 0.000000 0.500000
vt 0.500000 0.500000
vt 0.644962 0.000000
vt 0.572481 0.500000
vt 0.500000 1.000000
vt 0.717442 0.000000
vt 0.500000 0.000000
vt 0.572481 0.000000
vt 0.717442 0.500000
vt 0.644962 0.000000
vt 0.000000 0.500000
vt 0.789923 0.500000
vt 0.500000 0.500000
vt 0.500000 0.000000
vt 0.572481 0.500000
vt 0.572481 0.000000
vt 0.644962 0.500000
vt 0.000000 1.000000
s 0
f 1/1/1 5/13/1 7/19/1 3/7/1
f 4/10/2 3/8/2 7/20/2 8/22/2
f 8/23/3 7/21/3 5/14/3 6/16/3
f 6/17/4 2/4/4 4/11/4 8/24/4
f 2/5/5 1/2/5 3/9/5 4/12/5
f 6/18/6 5/15/6 1/3/6 2/6/6
