# Blender 3.1.0
# www.blender.org
o Walls
v -7.997825 -2.120345 11.043629
v 8.547103 -2.107547 11.043629
v -7.997825 -2.120345 -2.614501
v 8.547103 -2.107547 -2.614501
v -7.997825 5.065888 11.043629
v -7.997825 5.065888 -2.614501
v 8.546298 5.065888 11.043629
v 8.546298 5.065888 -2.614501
vn -0.0026 3.4020 -0.0000
vn 3.4020 -0.0000 -0.0000
vn -0.0000 -3.4020 -0.0000
vn -3.4020 -0.0004 -0.0000
vt 0.452222 0.000000
vt 0.690159 0.547778
vt 0.452222 0.547805
vt 0.927673 1.000000
vt 0.000000 0.000000
vt 0.690159 1.000000
vt 0.000000 0.547805
vt 0.927673 0.547778
vt 0.452222 0.547778
vt 0.904445 0.547778
vt 0.452222 1.000000
vt 0.452222 0.547778
vt 0.904445 0.000000
vt 0.690159 1.000000
vt 0.452222 0.000000
vt 0.690159 0.547778
s 0
f 1/1/1 2/3/1 4/7/1 3/5/1
f 1/2/2 3/6/2 6/11/2 5/9/2
f 5/10/3 6/12/3 8/15/3 7/13/3
f 7/14/4 8/16/4 4/8/4 2/4/4
